<svg xmlns="http://www.w3.org/2000/svg" viewBox="0 0 519.52 160.71" height="57" width="184"><defs><style>.cls-1{fill:#5fa565;}.cls-2{fill:#4b4a4b;}</style></defs><g id="Layer_2" data-name="Layer 2"><g id="Layer_1-2" data-name="Layer 1"><path class="cls-1" d="M120.21,91.29C97.43,87.64,93.48,78.42,83,71.46a4.55,4.55,0,0,0-4.29-.38,9.2,9.2,0,0,0-4.84,12.1c.13.28.26.56.41.82l.09.21a195.94,195.94,0,0,0,20.21,36.23,4.53,4.53,0,0,0,5.65,2l1.22-.49a49.76,49.76,0,0,0,22.86-24.73c1.18-2.85,0-5.27-4.07-5.92"></path><path class="cls-1" d="M78.77,129.38l-1.68.29A46.46,46.46,0,0,1,57.91,129a50.21,50.21,0,0,1-11.72-4.45c-2-1.23-4.87-3.06-4.87-3.06a4.49,4.49,0,0,1-2.12-5l2-8.29A79,79,0,0,1,55.9,78.11l1.39-1.78a4.54,4.54,0,0,1,6.35-.76A4.47,4.47,0,0,1,65.37,79l.1,3.57a55.89,55.89,0,0,0,9.2,29.14l7.11,10.79a4.5,4.5,0,0,1-1.31,6.23,4.66,4.66,0,0,1-1.7.67"></path><path class="cls-1" d="M22.31,110.16l-2.79-2.75A78.23,78.23,0,0,1,2.68,82.81a4.75,4.75,0,0,1,1.16-6.65l.06,0a38.73,38.73,0,0,1,12.58-8.44A82,82,0,0,1,50,59.59,4.51,4.51,0,0,1,54.61,64a4.41,4.41,0,0,1-1,2.93l-4.51,5.52A91.8,91.8,0,0,0,33.87,99.14l-3.64,9.94a4.53,4.53,0,0,1-7.92,1.08"></path><path class="cls-1" d="M57.78,51l-15.71.25A69.41,69.41,0,0,0,16.9,56.34L6.23,60.69A4.52,4.52,0,0,1,.34,58.23,4.34,4.34,0,0,1,0,56.45C.13,49,4.57,27.91,17.28,22.88c2.21-.87,22.35,2,36.6,11.55L57,37a14.34,14.34,0,0,1,5.12,8.71,4.5,4.5,0,0,1-3.68,5.2,4,4,0,0,1-.7.06"></path><path class="cls-1" d="M69.49,38.18,56.11,26.52a3.69,3.69,0,0,0-.55-.4L34.34,12.59A4.48,4.48,0,0,1,33,6.38a4.52,4.52,0,0,1,1.69-1.56C39,2.55,57.41-1.09,64.94.31A9,9,0,0,1,70.7,4.53c3.92,6.81,6.53,20.24,6.29,30.38a4.52,4.52,0,0,1-7.5,3.27"></path><path class="cls-1" d="M84.84,35.83l-.3-10.34a1.93,1.93,0,0,0,0-.24L83.2,8.93A4.47,4.47,0,0,1,89.41,4.4a32.53,32.53,0,0,1,11.68,7.32,19.26,19.26,0,0,1,3.88,17c-1.77,5.45-10.6,10.75-15.62,11.48a4.3,4.3,0,0,1-4.51-4.08,2.61,2.61,0,0,1,0-.28"></path><path class="cls-2" d="M411,80.91a14.63,14.63,0,0,0-8.39-1.9,19.46,19.46,0,0,0-7.24,1.19,5.81,5.81,0,0,0-3.75,5.13c-.21,1.38-.49,2.85-.84,4.39a12.62,12.62,0,0,1-1.88,4.22,10,10,0,0,1-4.19,3.29,19.25,19.25,0,0,1-8,1.36A17.51,17.51,0,0,1,365,95.14,13.65,13.65,0,0,1,361,84.28V47.62a13.89,13.89,0,0,1,3.87-10.81,16.73,16.73,0,0,1,11.48-3.51,20.83,20.83,0,0,1,8.38,1.36,10.92,10.92,0,0,1,4.35,3.25A11.25,11.25,0,0,1,391,41.85a15.51,15.51,0,0,1,.52,3.52v.06a5.61,5.61,0,0,0,3.65,5,18.81,18.81,0,0,0,7.53,1.34A14.77,14.77,0,0,0,411,50a8.58,8.58,0,0,0,2.95-7.66,20.94,20.94,0,0,0-5-14,32.29,32.29,0,0,0-13.53-9,56.46,56.46,0,0,0-19.62-3.18,54.53,54.53,0,0,0-18.43,3,28.6,28.6,0,0,0-13.65,10,30.52,30.52,0,0,0-5.11,18.4V84.27a30.43,30.43,0,0,0,5.11,18.4,28.6,28.6,0,0,0,13.65,10,53.92,53.92,0,0,0,18.28,3,55.74,55.74,0,0,0,19.7-3.25A30.94,30.94,0,0,0,408.92,103a22.67,22.67,0,0,0,5-14.52,8.66,8.66,0,0,0-2.95-7.6"></path><path class="cls-2" d="M519.27,107.39a9.9,9.9,0,0,1-8,7.43,10.28,10.28,0,0,1-10.76-4.14,21.41,21.41,0,0,1-2.36-4.43c-1.76-4-3.52-8.06-5.22-12.12-.52-1.25-1.13-1.62-3.46-1.14a94.75,94.75,0,0,1-36.61,0c-2.34-.44-3-.17-3.54,1.12-2,4.8-4.07,9.59-6.2,14.35a10.68,10.68,0,0,1-12.42,6.33A9.79,9.79,0,0,1,423.47,103a10.37,10.37,0,0,1,.73-2c5.25-11.92,10.58-23.78,15.87-35.69C446,52.05,451.88,38.85,457.69,25.6A14.38,14.38,0,0,1,468.89,16c.08,0,.14-.17.21-.26h4.54c.39.6,1.06.33,1.59.46a14.49,14.49,0,0,1,9.95,9.39c11.09,25.27,22.58,50.36,33.53,75.7a9.82,9.82,0,0,1,.62,5.86c0,.09,0,.17-.06.22m-48-64.65c-.26.25-.37.3-.41.39-4.12,9.76-8.21,19.52-12.36,29.25-.6,1.41.22,1.26,1.09,1.26H484.3Z"></path><path class="cls-2" d="M250.42,66c0-12.24.16-24.47-.06-36.7A11.24,11.24,0,0,1,261.08,17.5a9.19,9.19,0,0,1,1.05,0c17.53.12,35.06,0,52.59.05a9.72,9.72,0,0,1,10,9.37,9.62,9.62,0,0,1-.59,3.65,9.85,9.85,0,0,1-9.92,6.24H274.43c-2.76,0-2.4-.35-2.42,2.39,0,4.81,0,9.63,0,14.44,0,2.26,0,2.26,2.2,2.26h33.9a9.88,9.88,0,0,1,10.17,7.34,9.62,9.62,0,0,1-9.85,11.92c-11.41,0-22.84,0-34.24,0-1.67,0-2.28.28-2.23,2.12.15,5.34.13,10.67,0,16,0,1.61.48,1.87,2,1.87q20.79-.08,41.57,0a9.71,9.71,0,0,1,10,9.43,9.48,9.48,0,0,1-8.15,9.66,18.19,18.19,0,0,1-2.44.17H262.13a10.86,10.86,0,0,1-11.47-8.43,14.59,14.59,0,0,1-.22-3.3q0-18.34,0-36.68"></path><path class="cls-2" d="M147.91,105.42c0-2.26.05-4.52.05-6.77V27.8c0-.51,0-1-.05-1.55a10.78,10.78,0,0,1,21.4-.36,94.71,94.71,0,0,1,.15,10.25q.06,8.86,0,17.74c0,1.21.21,1.72,1.6,1.71q18-.09,36,0c1.23,0,1.56-.36,1.56-1.57q-.08-13,0-26.08a10.82,10.82,0,0,1,21.56-1.81,18,18,0,0,1,.12,2.07v75.29a10.84,10.84,0,0,1-21.06,4.27,10.19,10.19,0,0,1-.47-2.31c-.34-4.14-.15-8.34-.16-12.51,0-5.28,0-10.55,0-15.83,0-1.11-.15-1.62-1.47-1.62q-18.09.09-36.16,0c-1.3,0-1.51.45-1.51,1.6,0,8.92.08,17.85,0,26.78a10.78,10.78,0,0,1-15.08,10.31,10.08,10.08,0,0,1-6.46-8.76"></path><polygon class="cls-2" points="161.52 147.66 161.52 160.72 158.59 160.72 158.59 147.71 147.91 127.36 151.18 127.36 160.15 145.08 168.98 127.36 172.1 127.36 161.52 147.66"></polygon><path class="cls-2" d="M195.44,138q2.85,3.42,2.85,9.55t-2.9,9.6a10.73,10.73,0,0,1-15.85.05q-2.85-3.47-2.85-9.55a17,17,0,0,1,1.31-6.95,10.19,10.19,0,0,1,3.76-4.55,10.35,10.35,0,0,1,5.75-1.58,9.77,9.77,0,0,1,7.93,3.43m-13.68,1.61q-2.06,2.74-2,8t2,8a6.71,6.71,0,0,0,5.73,2.75,6.83,6.83,0,0,0,5.78-2.75c1.38-1.83,2.08-4.52,2.08-8.09s-.68-6.15-2-8a7.44,7.44,0,0,0-11.53,0"></path><path class="cls-2" d="M227.79,160.71h-2.38l-.2-4.52a9.35,9.35,0,0,1-8.34,4.52,7,7,0,0,1-5.31-2,7.85,7.85,0,0,1-1.91-5.66V135.25h2.83V152.8a6.19,6.19,0,0,0,1.25,4.27,4.93,4.93,0,0,0,3.82,1.35c2.93,0,5.4-1.69,7.42-5.1V135.25h2.82Z"></path><path class="cls-2" d="M243.43,124.81a2.17,2.17,0,0,1,.6,1.56,3,3,0,0,1-.14.92c-.1.32-.28.77-.54,1.37l-2.78,6.15h-1.9l1.85-6.53a2,2,0,0,1-1-1.84,2.21,2.21,0,0,1,.63-1.58,2.11,2.11,0,0,1,1.61-.67,2.22,2.22,0,0,1,1.64.62"></path><path class="cls-2" d="M267.93,134.89l-.54,2.55a7.94,7.94,0,0,0-2.24-.29A5.13,5.13,0,0,0,261,139a16,16,0,0,0-2.63,5.93v15.74h-2.83V135.25H258l.25,5.69q1.95-6.33,7.16-6.33a9.75,9.75,0,0,1,2.54.28"></path><path class="cls-2" d="M294.31,148.73h-17q.25,4.92,2.37,7.31a7.1,7.1,0,0,0,5.58,2.39,9.65,9.65,0,0,0,3.54-.61,15.62,15.62,0,0,0,3.34-1.93l1.32,1.8a14.27,14.27,0,0,1-3.9,2.28,12.84,12.84,0,0,1-4.44.74,9.85,9.85,0,0,1-8-3.4q-2.88-3.39-2.88-9.43a18.26,18.26,0,0,1,1.24-7,10.51,10.51,0,0,1,3.56-4.64,9,9,0,0,1,5.39-1.66,8.87,8.87,0,0,1,7.42,3.24q2.53,3.22,2.53,8.87a18.27,18.27,0,0,1-.1,2m-2.68-2.9a10.66,10.66,0,0,0-1.78-6.56,6.19,6.19,0,0,0-5.29-2.37,6.3,6.3,0,0,0-5.12,2.39q-1.95,2.39-2.15,7.25h14.34Z"></path><path class="cls-2" d="M335.47,135.21a10.63,10.63,0,0,1,3.32,1.94L337.38,139a9.15,9.15,0,0,0-2.61-1.5,8.79,8.79,0,0,0-3-.49,6.92,6.92,0,0,0-5.76,2.76c-1.43,1.84-2.14,4.53-2.14,8.05s.71,6.12,2.12,7.88a7,7,0,0,0,5.73,2.64,8.51,8.51,0,0,0,3.1-.54,11.22,11.22,0,0,0,2.8-1.61l1.37,1.9a11.23,11.23,0,0,1-7.32,2.63,10.53,10.53,0,0,1-5.71-1.53,10.05,10.05,0,0,1-3.77-4.43,16.27,16.27,0,0,1-1.34-6.92,16.83,16.83,0,0,1,1.34-7,10.65,10.65,0,0,1,3.77-4.62,10,10,0,0,1,5.66-1.63,11.7,11.7,0,0,1,3.9.6"></path><path class="cls-2" d="M365.25,138q2.85,3.42,2.85,9.55t-2.9,9.6a10.73,10.73,0,0,1-15.85.05q-2.85-3.47-2.85-9.55a17,17,0,0,1,1.31-6.95,10.19,10.19,0,0,1,3.76-4.55,10.35,10.35,0,0,1,5.75-1.58,9.79,9.79,0,0,1,7.93,3.43m-13.68,1.61q-2.06,2.74-2.05,8t2,8a6.71,6.71,0,0,0,5.73,2.75,6.83,6.83,0,0,0,5.78-2.75c1.38-1.83,2.07-4.52,2.07-8.09s-.67-6.15-2-8a7.44,7.44,0,0,0-11.53,0"></path><polygon class="cls-2" points="387.9 160.71 384.39 160.71 375.27 135.25 378.39 135.25 386.14 158.23 393.7 135.25 396.73 135.25 387.9 160.71"></polygon><path class="cls-2" d="M423.94,148.73h-17q.24,4.92,2.36,7.31a7.14,7.14,0,0,0,5.59,2.39,9.63,9.63,0,0,0,3.53-.61,15.39,15.39,0,0,0,3.34-1.93l1.32,1.8a14.27,14.27,0,0,1-3.9,2.28,12.76,12.76,0,0,1-4.44.74,9.85,9.85,0,0,1-8-3.4q-2.88-3.39-2.87-9.43a18.07,18.07,0,0,1,1.24-7,10.44,10.44,0,0,1,3.56-4.64,9,9,0,0,1,5.39-1.66q4.88,0,7.41,3.24t2.54,8.87c0,.71,0,1.38-.1,2m-2.68-2.9a10.72,10.72,0,0,0-1.78-6.56,6.21,6.21,0,0,0-5.3-2.37,6.3,6.3,0,0,0-5.12,2.39q-1.95,2.39-2.14,7.25h14.34Z"></path><path class="cls-2" d="M447.79,134.89l-.54,2.55a7.94,7.94,0,0,0-2.24-.29,5.11,5.11,0,0,0-4.15,1.89,15.79,15.79,0,0,0-2.63,5.93v15.74H435.4V135.25h2.44l.24,5.69q1.95-6.33,7.17-6.33a9.8,9.8,0,0,1,2.54.28"></path><path class="cls-2" d="M474.17,148.73h-17q.24,4.92,2.36,7.31a7.14,7.14,0,0,0,5.59,2.39,9.63,9.63,0,0,0,3.53-.61,15.39,15.39,0,0,0,3.34-1.93l1.32,1.8a14.27,14.27,0,0,1-3.9,2.28,12.76,12.76,0,0,1-4.44.74,9.85,9.85,0,0,1-7.95-3.4q-2.88-3.39-2.87-9.43a18.07,18.07,0,0,1,1.24-7,10.44,10.44,0,0,1,3.56-4.64,9,9,0,0,1,5.39-1.66q4.88,0,7.41,3.24t2.54,8.87c0,.71,0,1.38-.1,2m-2.68-2.9a10.72,10.72,0,0,0-1.78-6.56,6.88,6.88,0,0,0-10.41,0c-1.31,1.59-2,4-2.15,7.25h14.34Z"></path><path class="cls-2" d="M503.62,124.87v35.84h-2.43l-.35-3.89a8.64,8.64,0,0,1-7.65,3.89,8.22,8.22,0,0,1-7-3.47q-2.56-3.47-2.56-9.46a18.41,18.41,0,0,1,1.19-6.85,10.44,10.44,0,0,1,3.47-4.64,8.72,8.72,0,0,1,5.34-1.68,8.9,8.9,0,0,1,7.17,3.46v-13.2Zm-5.87,32.4a10.53,10.53,0,0,0,3.05-3.49V140.69c-1.83-2.53-4.05-3.79-6.68-3.79a6.4,6.4,0,0,0-5.49,2.83c-1.35,1.89-2,4.55-2,8s.62,6.09,1.86,7.93a5.83,5.83,0,0,0,5.12,2.76,7.11,7.11,0,0,0,4.12-1.16"></path><path class="cls-2" d="M518.86,156.74a2.23,2.23,0,0,1,.66,1.64,2.24,2.24,0,0,1-2.34,2.33,2.32,2.32,0,0,1-2.34-2.33,2.21,2.21,0,0,1,.68-1.64,2.34,2.34,0,0,1,1.66-.65,2.29,2.29,0,0,1,1.68.65"></path></g></g></svg>